<svg xmlns="http://www.w3.org/2000/svg" data-name="satispay-logo" viewBox="0 0 154.7 36.4" fill="white">
  <path d="M45.6 25.3h.3a21.2 21.2 0 0 0 4.4.5c2 0 3.6-.5 3.6-2.3 0-3.3-8.2-2-8.2-7.4 0-3 2.8-4.6 6.2-4.6a13.5 13.5 0 0 1 4 .7v2.4h-.2a12.3 12.3 0 0 0-3.8-.6c-1.6 0-3.4.4-3.4 2.1 0 3.1 8.2 2 8.2 7.2 0 3.8-3 5-6.5 5a21.5 21.5 0 0 1-4.6-.5Zm38.7 2.3a9.7 9.7 0 0 1-3.4.7c-1.6 0-4.2-.4-4.2-4.2v-9.7h-2.1V12h2V8.2l2.5-.5h.2V12h5.2v2.4h-5.2V24c0 1.7 1.5 1.9 2.2 1.9a10 10 0 0 0 2.6-.6Zm9.9-2.3h.3a21.2 21.2 0 0 0 4.3.5c2.1 0 3.6-.5 3.6-2.3 0-3.3-8.2-2-8.2-7.4 0-3 2.8-4.6 6.3-4.6a13.5 13.5 0 0 1 4 .7v2.4h-.3a12.3 12.3 0 0 0-3.8-.6c-1.6 0-3.4.3-3.4 2 0 3.2 8.2 2 8.2 7.3 0 3.8-3 5-6.5 5a21.5 21.5 0 0 1-4.6-.5ZM108.8 12l2.4-.5h.3v2a9 9 0 0 1 5.7-2c3.4 0 6.1 2.5 6.1 7.7s-2.7 9-8.3 9a15.8 15.8 0 0 1-3.5-.4v7.9l-2.3.5h-.4Zm2.7 13.4a21.1 21.1 0 0 0 3.6.4c3.3 0 5.4-2.1 5.4-6.2 0-3.8-1.3-5.7-4-5.7a7.7 7.7 0 0 0-5 2.2Zm34.2 2.2L140.3 12h3l3.9 12.3h.2l4.2-12.3h3l-5.9 16.4a13.3 13.3 0 0 1-6 7.8l-1.6-2a11 11 0 0 0 4.8-6m-8-.4-2.2.4h-.4V26a8.8 8.8 0 0 1-5.5 2.2 4.2 4.2 0 0 1-4.2-4.4c0-3.9 3.5-4.4 5.4-4.7l4.2-.6v-1.1c0-2.7-1.3-3.4-3.6-3.4a13.7 13.7 0 0 0-4.9 1l-.3-2.5a17.6 17.6 0 0 1 5.7-1c3.3 0 5.8 1.4 5.8 5.9Zm-2.7-7.3-4.3.6c-1.2.2-2.5.6-2.5 2.5a2.1 2.1 0 0 0 2.3 2.2 8.6 8.6 0 0 0 4.5-1.9Zm-63.7-3.1c0-4.5-2.5-5.9-5.8-5.9a17.6 17.6 0 0 0-5.7 1l.3 2.5a13.7 13.7 0 0 1 4.9-1c2.3 0 3.6.7 3.6 3.4v1.1l-4.2.6c-2 .3-5.4.8-5.4 4.7a4.2 4.2 0 0 0 4.2 4.4 8.8 8.8 0 0 0 5.5-2.2v2.2h.4l2.2-.4Zm-2.7 6.5a8.6 8.6 0 0 1-4.5 1.9 2.1 2.1 0 0 1-2.3-2.2c0-1.9 1.3-2.3 2.4-2.5l4.4-.6Zm18.8 4.3zM90 11.5l-2.4.5v16.2h.4l2.3-.5V11.5H90zm0-5.4-2.4.5v2.8h.4l2.3-.5V6.1H90z" class="cls-1"/>
  <path d="M111.5 18.7a1.4 1.4 0 1 1-1.3-1.4 1.4 1.4 0 0 1 1.3 1.4M29 1a.6.6 0 0 0-.3-1h-8.5l5 5ZM17.3 12.8l-6-6-5.5 5.4-5.6 5.6a.6.6 0 0 0 0 .8l5.6 5.6 5.4 5.5 6-6-5-5-.4-.4.4-.4Zm7.8 18.7-4.8 4.9h8.4a.6.6 0 0 0 .4-1Z" class="cls-1"/>
  <path d="m36.2 17.8-5.6-5.6-6.4-6.4L18.6.2a.6.6 0 0 0-.4-.2H7.7a.6.6 0 0 0-.4 1l4.8 4.8 6 6 6 6 .4.4-.4.4-6 6-6 6-4.8 4.8a.6.6 0 0 0 .4 1h10.5a.6.6 0 0 0 .4-.1l5.6-5.7 6.4-6.3 5.6-5.7a.6.6 0 0 0 0-.8" class="cls-1"/>
</svg>
