<?xml version="1.0" standalone="no"?>
<!DOCTYPE svg PUBLIC "-//W3C//DTD SVG 20010904//EN"
 "http://www.w3.org/TR/2001/REC-SVG-20010904/DTD/svg10.dtd">
<svg version="1.0" xmlns="http://www.w3.org/2000/svg"
 width="1800.000000pt" height="1800.000000pt" viewBox="0 0 1800.000000 1800.000000"
 preserveAspectRatio="xMidYMid meet">
<metadata>
Created by potrace 1.14, written by Peter Selinger 2001-2017
</metadata>
<g transform="translate(0.000000,1800.000000) scale(0.100000,-0.100000)"
fill="#000000" stroke="none">
<path d="M2778 12325 c-2 -2 -28 -6 -58 -10 -125 -14 -226 -103 -259 -228 -14
-51 -17 -110 -16 -324 0 -145 -1 -263 -3 -263 -1 0 -44 42 -95 93 -79 80 -139
130 -157 132 -3 0 -11 4 -19 9 -30 19 -147 19 -207 0 -79 -24 -162 -106 -192
-187 -39 -105 -21 -236 43 -312 14 -16 162 -169 328 -338 l302 -309 0 -453 c1
-451 1 -453 -20 -445 -11 4 -61 33 -112 64 -51 31 -97 56 -103 56 -5 0 -10 4
-10 9 0 5 -8 11 -17 14 -18 6 -88 45 -133 75 -14 9 -34 22 -45 27 -11 6 -91
53 -178 104 -127 75 -158 98 -163 120 -4 14 -17 67 -31 116 -13 50 -26 97 -28
105 -1 8 -14 58 -28 110 -14 52 -49 185 -78 295 -59 227 -74 267 -119 318 -63
72 -137 105 -237 105 -85 0 -151 -27 -213 -88 -98 -95 -123 -232 -70 -380 5
-14 12 -36 14 -50 3 -14 10 -40 15 -59 6 -19 9 -36 8 -38 -4 -3 -298 166 -307
176 -6 7 -51 32 -137 76 -114 59 -253 39 -347 -49 -44 -40 -80 -95 -93 -141
-15 -51 -11 -161 8 -210 17 -46 100 -155 118 -155 9 0 343 -197 404 -238 l39
-26 -120 -31 c-175 -46 -229 -80 -287 -179 -56 -96 -52 -235 10 -328 39 -59
68 -85 126 -114 76 -39 159 -42 264 -10 6 1 28 7 50 11 49 11 47 10 65 18 8 3
29 9 45 13 17 4 35 8 40 10 14 4 48 14 300 83 121 33 234 64 251 69 27 8 38 5
80 -21 27 -16 63 -38 79 -47 149 -84 623 -366 635 -376 10 -10 11 -14 2 -14
-7 0 -29 -11 -50 -24 -20 -13 -143 -86 -272 -161 -129 -76 -247 -145 -262
-154 -187 -113 -185 -112 -227 -96 -29 11 -254 74 -321 90 -8 2 -40 10 -70 19
-30 8 -80 21 -110 30 -59 16 -229 63 -270 74 -14 4 -59 7 -100 7 -89 0 -148
-25 -210 -86 -128 -127 -126 -334 6 -466 45 -45 172 -93 317 -120 22 -4 25 -8
16 -19 -6 -7 -23 -20 -38 -27 -98 -50 -408 -242 -436 -270 -34 -34 -73 -96
-82 -132 -15 -54 -11 -162 8 -210 20 -54 102 -155 125 -155 8 0 14 -4 14 -8 0
-8 79 -35 115 -39 96 -12 134 2 335 121 89 53 166 96 170 96 5 0 10 3 12 8 3
7 108 66 108 60 0 -2 -5 -19 -11 -38 -6 -19 -12 -44 -14 -55 -2 -11 -11 -45
-20 -75 -23 -78 -26 -174 -7 -229 74 -221 333 -292 507 -140 48 43 79 99 103
189 11 41 30 111 42 155 21 79 27 100 35 140 3 11 20 78 40 148 19 71 37 138
40 150 2 12 15 64 29 115 25 95 33 107 91 139 17 9 73 41 125 73 52 31 115 68
140 82 25 14 114 66 199 117 84 50 155 91 158 91 2 0 20 11 40 25 20 13 39 22
43 20 3 -2 6 -206 5 -454 l0 -451 -25 -23 c-119 -112 -609 -626 -625 -655 -11
-20 -22 -39 -25 -42 -18 -18 -25 -160 -10 -206 47 -150 174 -242 323 -232 93
6 147 37 260 150 54 54 99 98 100 98 1 0 3 -116 3 -257 0 -142 3 -278 7 -302
17 -112 109 -216 220 -249 12 -3 56 -6 97 -6 107 1 163 30 250 133 45 53 54
117 55 406 1 149 3 271 4 273 0 1 45 -42 99 -97 123 -125 164 -146 282 -146
72 0 93 4 136 27 63 33 124 101 152 168 31 74 26 186 -10 260 -27 54 -43 71
-537 575 l-128 130 2 450 c1 375 3 449 14 447 8 -2 47 -23 87 -48 41 -24 78
-44 84 -44 5 0 10 -4 10 -10 0 -5 5 -10 10 -10 6 0 34 -15 63 -33 29 -18 59
-36 67 -40 8 -4 32 -17 52 -29 21 -13 116 -69 212 -126 165 -97 176 -106 185
-140 6 -20 19 -73 31 -117 11 -44 22 -87 25 -95 2 -8 26 -103 55 -210 28 -107
53 -202 55 -210 2 -8 4 -15 5 -15 1 0 3 -9 5 -20 9 -58 49 -185 70 -221 32
-54 86 -101 152 -131 66 -30 163 -30 237 1 62 25 135 97 165 161 27 57 32 166
12 245 -6 25 -13 50 -14 55 -1 6 -6 16 -10 23 -5 6 -6 12 -4 12 3 0 -1 21 -9
47 -8 25 -12 48 -10 50 4 5 76 -36 94 -54 7 -7 18 -13 23 -13 5 0 78 -41 161
-91 201 -120 217 -127 308 -125 93 2 153 27 216 92 77 77 108 173 89 277 -18
106 -88 195 -198 252 -31 16 -57 33 -57 37 0 4 -4 8 -10 8 -5 0 -44 21 -87 46
-43 26 -98 58 -123 72 -93 53 -104 61 -89 66 30 10 129 37 154 42 268 48 373
371 182 556 -75 72 -188 103 -287 79 -25 -7 -56 -14 -70 -17 -14 -2 -36 -9
-50 -14 -24 -8 -324 -90 -345 -94 -5 -1 -16 -5 -22 -9 -7 -5 -13 -6 -13 -3 0
3 -12 1 -27 -5 -16 -6 -35 -12 -43 -14 -27 -6 -204 -53 -236 -63 -28 -9 -39
-5 -100 34 -38 24 -75 44 -81 44 -7 0 -13 5 -13 10 0 6 -4 10 -9 10 -5 0 -65
34 -133 75 -67 41 -150 89 -182 107 -32 18 -66 38 -75 43 -9 6 -58 34 -109 64
-51 30 -92 58 -92 63 0 5 8 11 18 15 9 3 40 20 67 38 85 55 515 305 524 305 5
0 11 3 13 8 5 12 131 84 148 83 8 0 65 -14 125 -31 61 -17 118 -33 127 -35 26
-6 169 -45 203 -56 338 -105 485 -125 576 -81 86 42 155 127 174 212 28 121
-7 236 -95 317 -47 44 -95 65 -220 98 -58 15 -108 30 -112 34 -4 3 14 18 40
32 101 56 347 204 350 211 2 5 10 8 18 8 24 0 113 96 135 145 18 40 33 116 31
150 -8 115 -79 222 -180 272 -96 47 -230 37 -320 -24 -69 -45 -391 -230 -396
-226 -2 2 0 19 6 36 5 18 11 39 12 47 1 8 10 42 20 75 43 145 25 255 -59 352
-49 58 -140 100 -221 102 -56 2 -140 -18 -168 -39 -95 -74 -124 -119 -157
-240 -11 -39 -27 -101 -38 -139 -10 -39 -16 -72 -13 -75 3 -4 0 -6 -7 -6 -7 0
-10 -4 -7 -8 2 -4 -4 -39 -15 -77 -11 -39 -22 -81 -25 -94 -3 -14 -7 -28 -9
-31 -2 -4 -7 -20 -10 -36 -11 -61 -85 -327 -92 -335 -8 -7 -36 -24 -163 -96
-36 -20 -66 -41 -68 -45 -2 -4 -8 -8 -13 -8 -9 0 -155 -84 -228 -131 -24 -16
-57 -34 -72 -41 -16 -7 -29 -16 -29 -20 0 -5 -5 -8 -10 -8 -6 0 -44 -20 -85
-45 -41 -25 -80 -48 -87 -50 -11 -4 -13 77 -13 449 l0 455 117 118 c451 455
579 593 552 593 -3 0 -1 7 6 15 6 8 14 49 17 92 6 96 -17 168 -79 237 -60 70
-125 99 -221 103 -115 3 -162 -21 -287 -146 -55 -54 -102 -96 -104 -92 -1 3
-2 119 -2 256 1 138 -2 269 -6 292 -18 101 -87 192 -176 230 -57 25 -110 42
-114 38z"/>
<path d="M10212 12292 c-70 -82 -296 -302 -412 -402 -14 -12 -52 -45 -85 -74
-33 -29 -82 -72 -110 -96 -97 -82 -170 -145 -187 -162 -10 -10 -22 -18 -28
-18 -5 0 -10 -4 -10 -8 0 -4 -33 -35 -72 -69 -40 -34 -89 -76 -109 -95 -20
-18 -64 -57 -97 -87 -73 -64 -97 -86 -223 -206 l-97 -92 25 -29 c14 -16 60
-72 102 -124 42 -52 79 -97 82 -100 24 -20 241 -346 313 -470 58 -101 160
-309 203 -414 25 -61 49 -115 53 -120 4 -4 21 7 37 25 42 48 279 286 349 349
78 71 209 188 256 229 l38 33 67 -59 c37 -32 73 -62 79 -68 482 -431 761 -758
914 -1070 43 -88 82 -189 97 -250 46 -191 50 -348 12 -538 -6 -28 -12 -63 -15
-77 -3 -14 -8 -34 -11 -45 -4 -11 -8 -24 -9 -30 -10 -49 -55 -165 -98 -248
-62 -122 -113 -194 -204 -284 -64 -64 -216 -175 -236 -172 -5 0 -12 -3 -15 -8
-8 -12 -118 -63 -135 -63 -7 0 -16 -3 -20 -7 -7 -7 -31 -14 -58 -16 -10 -1
-18 -4 -18 -8 0 -4 -28 -12 -62 -18 -35 -6 -74 -14 -88 -17 -44 -11 -323 -13
-375 -3 -27 5 -61 11 -75 14 -67 10 -170 39 -195 54 -5 3 -15 6 -21 7 -7 1
-52 22 -102 47 l-89 46 -28 -82 c-15 -45 -32 -93 -38 -107 -6 -14 -11 -27 -12
-30 -39 -116 -251 -528 -277 -538 -4 -2 -8 -8 -8 -13 0 -14 -153 -226 -205
-285 -5 -6 -30 -35 -55 -65 -25 -29 -57 -66 -72 -81 -16 -16 -28 -32 -28 -36
1 -17 329 -185 384 -197 6 -1 23 -7 39 -13 88 -37 308 -101 392 -116 17 -3 59
-10 95 -16 68 -12 85 -14 185 -27 78 -10 491 -10 575 0 101 12 202 28 240 37
19 5 52 11 74 14 21 4 41 8 45 11 4 2 21 7 37 10 29 6 37 8 64 17 180 58 204
66 285 98 41 17 280 133 285 139 3 3 21 15 40 25 19 11 73 44 118 75 46 31 91
61 99 66 9 6 24 17 33 25 9 8 37 31 61 50 117 93 274 250 365 367 70 88 143
194 198 287 36 61 70 117 76 124 6 6 9 12 6 12 -3 0 12 35 34 78 46 92 87 194
128 318 39 114 82 274 75 274 -3 0 0 6 6 13 6 8 8 17 5 20 -3 3 -2 12 2 19 4
7 9 19 10 28 2 13 5 32 20 120 2 14 6 36 9 49 2 13 7 49 10 79 3 30 7 67 10
81 5 33 17 195 17 241 0 71 -18 298 -26 340 -3 14 -7 43 -10 65 -4 33 -33 175
-52 250 -3 11 -6 25 -8 30 -5 24 -39 132 -46 150 -4 11 -14 36 -21 55 -78 220
-208 471 -361 699 -53 78 -207 283 -253 336 -15 17 -50 57 -78 90 -29 33 -72
82 -97 110 -72 79 -360 364 -445 440 -42 39 -97 88 -121 110 -23 22 -64 58
-90 80 -26 22 -54 47 -63 56 -9 8 -45 40 -81 70 -36 30 -67 56 -70 59 -5 5
-101 88 -235 204 -230 198 -390 348 -522 489 -35 37 -64 67 -65 66 -2 0 -13
-12 -26 -27z"/>
<path d="M6540 12302 c0 -16 -268 -281 -419 -412 -35 -30 -73 -64 -85 -75 -12
-11 -49 -42 -81 -70 -32 -27 -63 -54 -69 -60 -6 -5 -76 -66 -156 -135 -80 -68
-157 -135 -171 -148 l-27 -25 73 -37 c94 -48 135 -79 215 -159 92 -92 189
-243 205 -318 2 -10 10 -34 19 -54 8 -20 13 -39 10 -42 -3 -3 0 -15 6 -27 17
-32 20 -256 5 -337 -25 -130 -65 -227 -139 -337 l-46 -68 25 -82 c14 -45 25
-91 25 -102 0 -12 3 -23 6 -27 3 -3 67 56 143 131 75 76 177 173 226 217 48
44 95 87 104 95 9 9 46 42 83 74 l68 58 62 -53 c34 -30 69 -61 78 -69 9 -8 61
-55 115 -105 447 -407 740 -777 854 -1080 12 -33 27 -68 32 -77 5 -10 9 -27 9
-39 0 -11 4 -28 9 -38 5 -9 12 -35 15 -57 3 -21 9 -59 13 -84 13 -80 6 -286
-12 -350 -2 -8 -6 -32 -9 -52 -8 -52 -44 -180 -72 -255 -94 -249 -247 -434
-471 -570 -48 -30 -179 -90 -213 -98 -8 -3 -42 -12 -75 -21 -81 -22 -92 -24
-150 -32 -60 -7 -338 -7 -380 1 -16 3 -43 8 -60 11 -16 3 -61 15 -100 26 -38
12 -74 23 -80 24 -5 2 -23 8 -39 15 -16 6 -30 10 -31 9 0 -2 -8 -23 -15 -48
-37 -118 -105 -238 -190 -333 -48 -53 -162 -147 -179 -147 -6 0 -11 -4 -11 -9
0 -11 -141 -75 -210 -94 -96 -28 -112 -30 -250 -31 l-135 -2 -87 -86 c-48 -47
-96 -89 -107 -93 -12 -3 -21 -10 -21 -15 0 -4 -9 -10 -20 -13 -11 -3 -20 -9
-20 -14 0 -11 150 -133 225 -183 28 -19 52 -37 53 -42 2 -4 8 -8 14 -8 5 0 22
-9 38 -20 72 -51 409 -220 439 -220 5 0 31 -9 57 -20 26 -11 54 -22 63 -24 9
-2 23 -6 31 -9 8 -4 40 -13 70 -21 30 -8 72 -20 94 -26 45 -13 46 -14 191 -39
105 -19 181 -29 290 -37 59 -4 324 -4 375 1 121 11 178 17 252 30 46 8 99 17
118 20 114 18 340 90 507 161 118 50 246 115 251 127 2 4 8 7 13 7 8 0 109 59
119 69 3 4 16 12 30 20 28 16 160 113 204 151 145 124 234 215 347 354 79 97
184 248 216 310 9 17 19 33 22 36 15 12 131 262 170 365 40 104 45 120 48 130
1 6 14 51 28 100 14 50 28 98 30 108 2 10 6 26 9 35 3 9 7 28 10 42 3 14 10
50 16 80 6 30 13 69 15 85 3 17 7 40 9 52 4 19 7 46 21 178 5 39 17 207 17
220 0 37 -13 236 -16 260 -10 80 -20 152 -22 170 -3 32 -43 205 -62 265 -9 30
-17 57 -17 60 -72 271 -289 688 -505 973 -41 55 -79 106 -85 114 -10 17 -16
23 -137 163 -138 161 -358 385 -533 545 -54 50 -108 99 -119 110 -12 11 -50
45 -86 75 -35 30 -76 66 -90 80 -15 14 -51 45 -81 70 -29 25 -63 54 -75 65
-12 11 -43 38 -70 60 -26 22 -52 45 -58 50 -6 6 -40 35 -76 65 -79 67 -116
100 -265 235 -107 97 -325 316 -325 327 0 4 -9 8 -20 8 -11 0 -20 -4 -20 -8z"/>
<path d="M14448 12233 c-22 -5 -111 -151 -104 -169 3 -8 0 -13 -6 -11 -6 1
-16 -8 -23 -19 -6 -12 -17 -29 -24 -38 -7 -9 -10 -16 -6 -16 4 0 -4 -15 -19
-34 -14 -19 -26 -39 -26 -44 0 -5 -10 -22 -22 -38 -13 -16 -21 -30 -18 -31 3
-1 -2 -10 -10 -20 -8 -10 -24 -37 -35 -60 -11 -24 -24 -43 -29 -43 -4 0 -6 -7
-3 -15 4 -8 1 -17 -5 -21 -7 -5 -8 -2 -3 6 5 9 4 11 -3 6 -7 -4 -12 -16 -12
-26 0 -10 -4 -21 -9 -24 -5 -4 -25 -35 -45 -70 -35 -63 -47 -116 -25 -116 5 0
8 -4 5 -9 -7 -11 15 -30 40 -34 10 -1 25 -6 32 -10 6 -5 12 -5 12 0 0 4 59 8
130 8 72 0 130 -4 130 -8 0 -5 5 -5 12 -1 6 4 123 7 260 7 184 -1 246 2 241
11 -4 8 -3 8 7 0 16 -15 54 20 46 42 -3 8 -2 12 3 9 5 -3 11 3 13 12 4 18 -14
55 -39 81 -7 8 -11 18 -8 23 4 5 1 9 -4 9 -6 0 -11 4 -11 9 0 13 -82 155 -92
159 -4 2 -8 10 -8 18 0 8 -5 14 -12 14 -6 0 -8 3 -5 6 7 7 -42 97 -55 102 -4
2 -8 10 -8 18 0 8 -4 14 -10 14 -5 0 -9 6 -7 13 1 6 -2 11 -8 10 -5 -1 -11 9
-11 22 -1 14 -9 31 -17 40 -9 8 -19 24 -22 35 -3 11 -11 20 -16 20 -5 0 -9 9
-9 20 0 11 -4 20 -10 20 -5 0 -10 7 -10 15 0 8 -4 15 -10 15 -5 0 -10 9 -10
20 0 11 -4 20 -10 20 -5 0 -10 5 -10 11 0 28 -59 53 -102 42z m207 -393 c-3
-5 -12 -10 -18 -10 -7 0 -6 4 3 10 19 12 23 12 15 0z m-245 -40 c0 -5 -2 -10
-4 -10 -3 0 -8 5 -11 10 -3 6 -1 10 4 10 6 0 11 -4 11 -10z m280 -194 c0 -3
-4 -8 -10 -11 -5 -3 -10 -1 -10 4 0 6 5 11 10 11 6 0 10 -2 10 -4z"/>
<path d="M15953 11818 c-13 -6 -23 -15 -23 -19 0 -4 -13 -10 -30 -14 -16 -4
-30 -10 -30 -15 0 -4 -8 -10 -17 -13 -20 -6 -91 -47 -110 -62 -7 -5 -19 -16
-28 -23 -8 -7 -15 -10 -15 -7 0 7 -63 -25 -70 -35 -3 -4 -39 -24 -80 -46 -41
-21 -77 -42 -80 -45 -3 -4 -24 -17 -47 -29 -24 -12 -40 -27 -36 -33 3 -6 1 -7
-5 -3 -15 9 -95 -38 -85 -49 5 -4 3 -5 -4 -1 -21 12 -49 -27 -48 -66 3 -46 6
-51 54 -74 23 -10 41 -23 41 -28 0 -4 8 -5 17 -2 10 4 14 4 10 0 -6 -6 166
-111 186 -113 4 -1 16 -10 28 -22 11 -11 27 -18 35 -15 9 3 12 1 9 -4 -3 -6 1
-10 9 -10 9 0 16 -5 16 -11 0 -5 5 -7 10 -4 6 3 10 1 10 -4 0 -6 7 -11 15 -11
8 0 24 -9 36 -21 11 -11 27 -18 35 -15 8 3 13 2 10 -3 -5 -8 56 -43 70 -40 4
0 11 -6 16 -15 5 -9 13 -16 18 -16 5 0 32 -13 58 -30 52 -32 78 -39 66 -17 -5
8 -2 8 9 -2 18 -14 26 -11 64 26 17 15 17 26 1 17 -9 -5 -9 -3 1 9 7 9 11 25
8 36 -2 10 0 26 5 35 5 9 5 16 1 16 -11 0 -10 144 1 152 6 4 6 12 0 20 -5 7
-8 45 -7 83 4 79 4 72 1 140 -1 28 2 56 6 63 4 7 3 12 -2 12 -7 0 -9 54 -2 85
1 6 1 15 0 20 -1 6 -1 45 -1 88 1 70 -1 80 -23 102 -27 27 -65 31 -103 13z
m-459 -296 c3 -5 -1 -9 -9 -9 -8 0 -12 4 -9 9 3 4 7 8 9 8 2 0 6 -4 9 -8z
m-44 -236 c0 -2 -7 -7 -16 -10 -8 -3 -12 -2 -9 4 6 10 25 14 25 6z"/>
<path d="M12910 11800 c0 -5 -7 -10 -15 -10 -13 0 -18 -11 -30 -72 -1 -9 2
-19 9 -22 6 -2 7 -5 1 -5 -7 -1 -10 -136 -9 -386 l1 -386 23 -24 c30 -32 69
-32 120 0 22 14 40 23 40 20 0 -6 14 5 47 35 9 8 17 14 17 13 2 -6 46 10 46
17 0 5 12 13 28 19 15 6 41 20 57 30 17 11 41 26 55 34 110 60 196 109 235
135 11 7 32 17 48 23 15 6 27 15 27 20 0 5 6 9 14 9 7 0 29 15 49 34 29 27 35
39 31 62 -6 36 -13 46 -25 38 -5 -3 -8 0 -7 7 4 15 -90 71 -104 63 -6 -4 -8
-2 -5 3 8 12 -53 44 -67 36 -5 -3 -6 -2 -3 4 6 9 -94 73 -114 73 -5 0 -9 5 -9
11 0 5 -4 8 -9 5 -5 -3 -14 1 -21 9 -7 8 -19 15 -26 15 -8 0 -14 4 -14 8 0 5
-16 14 -35 22 -19 8 -35 18 -35 23 0 5 -9 7 -20 4 -11 -3 -18 -1 -15 4 7 11
-70 51 -80 41 -3 -4 -5 -1 -3 7 2 7 -6 15 -16 17 -10 1 -22 7 -25 12 -21 32
-161 78 -161 52z m544 -518 c3 -5 -1 -9 -9 -9 -8 0 -12 4 -9 9 3 4 7 8 9 8 2
0 6 -4 9 -8z"/>
<path d="M14427 11053 c-2 -1 -44 -3 -94 -5 -52 -2 -89 -7 -85 -12 3 -5 -3 -6
-13 -3 -9 4 -25 2 -33 -5 -13 -11 -14 -11 -7 1 5 9 4 12 -2 8 -10 -7 -76 -19
-100 -20 -7 0 -13 -4 -13 -9 0 -5 -4 -6 -10 -3 -13 8 -171 -35 -165 -45 2 -4
-7 -5 -22 -2 -19 4 -24 2 -18 -8 5 -8 4 -11 -2 -7 -6 4 -35 -2 -64 -12 -82
-28 -269 -119 -269 -131 0 -5 -9 -10 -19 -10 -11 0 -26 -6 -33 -14 -8 -7 -24
-17 -36 -20 -12 -4 -20 -12 -17 -17 4 -5 -1 -9 -9 -9 -9 0 -25 -9 -35 -19 -11
-11 -21 -17 -23 -15 -3 2 -15 -7 -28 -21 -13 -14 -29 -25 -35 -25 -6 0 -22
-13 -35 -30 -14 -16 -29 -29 -34 -30 -11 0 -216 -204 -216 -214 0 -4 -11 -17
-23 -29 -23 -22 -32 -57 -15 -57 5 0 7 -4 4 -9 -4 -5 -3 -11 1 -13 5 -1 19
-24 33 -50 13 -27 27 -48 31 -48 3 0 6 -6 6 -12 1 -24 50 -108 58 -100 5 4 5
2 2 -5 -10 -16 3 -44 16 -36 5 3 7 1 4 -4 -4 -6 9 -45 28 -86 19 -42 35 -83
35 -91 0 -8 6 -19 13 -23 6 -4 12 -12 13 -18 1 -25 17 -65 26 -65 5 0 7 -4 3
-10 -3 -5 -2 -17 3 -27 5 -10 18 -45 28 -78 10 -33 21 -65 26 -71 5 -7 8 -16
7 -20 -5 -21 26 -102 35 -96 6 3 5 -2 -2 -11 -12 -14 -12 -19 1 -32 8 -8 13
-24 10 -35 -3 -11 -1 -20 4 -20 5 0 10 -18 11 -41 1 -22 5 -45 8 -50 3 -5 7
-24 10 -42 2 -18 6 -43 9 -57 9 -45 16 -93 21 -139 11 -110 14 -142 16 -173 1
-18 7 -36 13 -40 6 -5 5 -8 -3 -8 -9 0 -10 -5 -3 -18 7 -13 6 -23 -1 -30 -9
-9 -9 -12 1 -12 10 0 11 -3 3 -13 -6 -7 -7 -18 -2 -26 4 -8 5 -24 0 -35 -4
-11 -4 -33 0 -48 5 -14 6 -29 3 -32 -10 -10 -9 -66 1 -66 6 0 4 -5 -4 -10 -13
-9 -13 -10 0 -10 10 0 11 -3 4 -8 -11 -7 -18 -72 -19 -169 0 -28 -4 -49 -8
-46 -5 3 -7 -8 -6 -23 2 -16 1 -34 -2 -39 -3 -6 -5 -26 -5 -47 1 -20 -2 -34
-5 -32 -5 3 -20 -84 -24 -141 0 -5 -3 -14 -6 -20 -4 -5 -5 -18 -4 -27 2 -10
-2 -18 -8 -18 -5 0 -8 -3 -5 -6 4 -3 2 -20 -3 -37 -10 -34 -22 -101 -23 -129
0 -9 -3 -15 -6 -13 -3 2 -13 -23 -21 -56 -9 -32 -12 -59 -7 -59 5 0 6 -4 3
-10 -3 -5 5 -15 19 -22 14 -6 26 -14 26 -18 0 -8 98 -72 104 -68 3 2 11 -6 19
-16 9 -12 20 -17 30 -13 9 3 16 2 14 -4 -1 -5 16 -19 38 -32 22 -12 43 -26 46
-30 3 -5 9 -8 13 -8 6 1 86 -32 119 -50 26 -14 119 -47 142 -51 11 -2 23 -6
26 -11 3 -4 19 -10 35 -12 58 -9 89 -18 102 -28 8 -6 17 -5 28 3 12 11 15 11
12 0 -2 -7 8 -14 22 -16 40 -6 65 -11 65 -13 0 -2 14 -4 30 -5 17 -2 66 -7
110 -11 44 -5 136 -8 205 -7 168 2 171 3 163 16 -4 7 -1 6 9 -1 8 -7 17 -10
20 -8 3 3 27 8 54 11 58 7 87 12 94 14 11 5 27 7 58 8 18 1 31 5 29 10 -3 4 7
8 21 9 30 3 50 7 72 16 8 3 43 13 77 24 33 10 60 20 58 23 -2 3 8 6 22 7 14 0
29 7 34 15 5 7 9 9 9 4 0 -5 7 -3 15 4 8 7 15 9 15 6 0 -4 10 0 22 8 12 9 29
16 38 16 9 0 22 9 29 19 8 11 21 17 29 13 9 -3 13 -1 9 5 -4 6 1 10 11 9 9 0
16 4 15 11 -2 7 3 10 11 7 12 -4 67 25 103 56 7 6 16 11 20 11 13 2 133 92
133 101 0 4 5 8 12 8 15 0 20 5 159 141 104 103 281 319 262 319 -4 0 -1 6 7
13 17 14 26 30 73 120 17 34 30 66 29 70 -1 4 5 10 13 13 8 4 15 14 15 23 0 9
5 22 12 29 7 7 8 12 4 12 -5 0 -3 7 4 15 7 8 9 15 4 15 -5 0 -3 4 4 9 8 5 15
20 15 34 1 14 4 23 6 21 6 -5 51 133 53 163 2 13 5 23 9 23 3 0 9 17 12 38 3
20 8 48 11 62 9 35 14 69 21 115 3 22 7 49 9 60 2 11 -2 26 -8 34 -8 11 -8 13
2 7 13 -8 14 9 14 179 0 125 -4 205 -11 205 -3 0 -5 15 -5 32 1 18 -4 39 -10
47 -9 12 -8 13 3 6 9 -5 12 -4 8 2 -7 10 -19 76 -20 101 0 6 -4 12 -8 12 -5 0
-6 7 -3 15 4 8 2 21 -4 28 -6 6 -10 15 -10 20 -1 24 -26 117 -32 117 -4 0 -7
12 -7 26 0 15 -7 30 -14 35 -8 5 -11 9 -7 9 14 0 -113 284 -133 300 -3 3 -10
15 -14 28 -4 15 -12 21 -21 18 -8 -3 -12 -2 -9 3 7 13 -34 91 -51 98 -8 3 -14
11 -14 17 0 7 -8 21 -18 32 -10 10 -29 36 -43 56 -14 21 -29 35 -32 31 -4 -3
-7 -1 -7 6 0 6 -31 43 -69 81 -37 38 -66 72 -63 75 3 3 0 5 -6 5 -6 0 -29 18
-52 41 -22 22 -40 38 -40 34 0 -3 -15 8 -32 24 -18 17 -36 31 -40 31 -4 0 -16
10 -28 22 -11 12 -20 18 -20 12 0 -5 -4 -4 -8 2 -12 19 -110 83 -116 77 -3 -4
-6 -1 -6 5 0 7 -6 12 -14 12 -8 0 -16 3 -18 8 -6 15 -197 104 -209 96 -8 -4
-9 -3 -5 4 6 11 -12 17 -36 13 -5 0 -8 3 -8 8 0 8 -21 16 -65 27 -5 1 -17 3
-25 5 -8 2 -17 7 -20 11 -3 4 -17 9 -30 12 -14 3 -40 9 -57 15 -18 5 -33 7
-33 4 0 -3 -6 -1 -12 4 -15 12 -158 38 -205 37 -18 0 -33 3 -33 6 0 4 -24 8
-52 9 -82 4 -219 7 -221 4z m218 -93 c3 -5 1 -10 -4 -10 -6 0 -11 5 -11 10 0
6 2 10 4 10 3 0 8 -4 11 -10z m205 6 c0 -2 -7 -7 -16 -10 -8 -3 -12 -2 -9 4 6
10 25 14 25 6z m-1206 -132 c3 -8 2 -12 -4 -9 -6 3 -10 10 -10 16 0 14 7 11
14 -7z m1721 -1114 c3 -5 1 -10 -4 -10 -6 0 -11 5 -11 10 0 6 2 10 4 10 3 0 8
-4 11 -10z m0 -119 c3 -5 2 -12 -3 -15 -5 -3 -9 1 -9 9 0 17 3 19 12 6z m-680
-569 c-3 -3 -11 0 -18 7 -9 10 -8 11 6 5 10 -3 15 -9 12 -12z m125 8 c0 -5 -5
-10 -11 -10 -5 0 -7 5 -4 10 3 6 8 10 11 10 2 0 4 -4 4 -10z m124 2 c3 -5 -1
-9 -9 -9 -8 0 -12 4 -9 9 3 4 7 8 9 8 2 0 6 -4 9 -8z m1326 -516 c0 -2 -8 -10
-17 -17 -16 -13 -17 -12 -4 4 13 16 21 21 21 13z m-2815 -774 c-3 -3 -11 0
-18 7 -9 10 -8 11 6 5 10 -3 15 -9 12 -12z m1116 -319 c13 -16 12 -17 -3 -4
-10 7 -18 15 -18 17 0 8 8 3 21 -13z"/>
<path d="M16376 10703 c-3 -4 -24 -6 -46 -5 -24 2 -40 -2 -40 -8 0 -6 -4 -8
-10 -5 -5 3 -10 1 -10 -5 0 -6 -4 -9 -9 -6 -9 6 -23 -27 -24 -54 0 -23 34 -92
55 -113 10 -10 16 -22 13 -28 -4 -5 1 -12 9 -15 9 -3 16 -15 16 -25 0 -10 4
-19 8 -19 5 0 14 -16 22 -35 8 -19 17 -35 20 -35 3 0 12 -16 20 -35 8 -19 17
-35 22 -35 4 0 8 -7 8 -15 0 -8 5 -15 10 -15 6 0 9 -3 8 -7 -3 -10 63 -127 74
-131 4 -2 8 -10 8 -18 0 -9 5 -12 12 -8 7 4 8 3 4 -4 -4 -6 14 -46 39 -89 70
-121 77 -128 125 -128 44 0 42 -1 91 84 14 25 42 72 62 103 20 31 37 64 37 73
0 8 5 15 10 15 6 0 10 7 10 15 0 8 4 15 9 15 8 0 12 10 20 45 1 6 9 14 17 18
8 4 14 12 14 17 0 5 14 32 31 60 17 27 28 54 24 60 -3 5 0 10 9 10 17 0 61 85
51 100 -4 6 1 7 12 3 10 -3 15 -3 11 2 -4 4 2 19 12 33 11 13 20 30 20 38 0 7
4 14 9 16 6 2 12 16 15 32 7 38 -22 89 -46 82 -11 -2 -15 0 -11 7 4 6 -1 8
-14 5 -12 -3 -27 -2 -34 3 -7 4 -18 5 -23 1 -15 -9 -167 -8 -173 1 -2 4 -9 5
-14 1 -16 -9 -89 -12 -89 -3 0 5 -7 6 -16 2 -23 -9 -347 -10 -360 -1 -6 4 -14
5 -18 1z m284 -539 c0 -8 -19 -13 -24 -6 -3 5 1 9 9 9 8 0 15 -2 15 -3z m-10
-124 c0 -5 -2 -10 -4 -10 -3 0 -8 5 -11 10 -3 6 -1 10 4 10 6 0 11 -4 11 -10z"/>
<path d="M16794 9573 c-10 -7 -14 -13 -8 -13 5 0 1 -5 -8 -10 -13 -8 -17 -27
-17 -103 0 -50 0 -101 0 -112 1 -17 0 -164 -1 -215 0 -8 1 -24 4 -35 2 -11 -1
-28 -6 -37 -5 -10 -5 -18 -1 -18 6 0 8 -153 3 -225 -1 -5 1 -34 3 -64 5 -63
33 -93 82 -87 36 3 95 32 95 46 0 6 3 9 8 8 12 -3 52 13 52 22 0 4 11 11 25
14 14 4 25 11 25 17 0 6 4 8 9 5 5 -3 14 1 21 9 7 8 16 15 20 15 9 0 175 95
213 122 15 11 27 16 27 12 0 -4 8 0 18 8 9 8 24 18 32 22 8 4 24 12 35 19 11
7 50 29 86 50 37 20 71 48 77 61 13 30 6 78 -13 89 -8 4 -20 13 -27 20 -7 7
-28 20 -45 28 -18 7 -33 18 -33 22 0 5 -4 5 -10 2 -5 -3 -10 -1 -10 5 0 6 -4
8 -10 5 -5 -3 -10 -1 -10 4 0 6 -7 11 -15 11 -8 0 -15 4 -15 8 0 5 -16 14 -35
22 -19 8 -35 17 -35 22 0 4 -4 8 -9 8 -5 0 -40 19 -77 42 -38 23 -75 41 -81
41 -7 0 -13 4 -13 9 0 4 -6 8 -14 8 -8 0 -16 4 -18 8 -4 10 -146 92 -159 92
-5 0 -9 5 -9 11 0 6 -9 9 -20 6 -11 -3 -18 0 -17 7 1 6 -8 11 -19 10 -15 0
-20 4 -17 13 7 18 -58 15 -83 -4z m11 -82 c3 -5 2 -12 -3 -15 -5 -3 -9 1 -9 9
0 17 3 19 12 6z m130 -131 c3 -6 -1 -7 -9 -4 -18 7 -21 14 -7 14 6 0 13 -4 16
-10z"/>
<path d="M16700 8349 c0 -5 -4 -8 -9 -4 -12 7 -51 -33 -51 -52 0 -7 -4 -13 -8
-13 -5 0 -14 -16 -22 -35 -8 -19 -17 -35 -21 -35 -4 0 -11 -10 -15 -22 -4 -13
-18 -39 -31 -60 -14 -21 -22 -42 -17 -49 4 -8 3 -9 -4 -5 -7 4 -12 1 -12 -8 0
-9 -4 -16 -9 -16 -5 0 -15 -16 -22 -34 -7 -19 -16 -33 -21 -30 -4 3 -8 -4 -8
-15 0 -11 -8 -28 -18 -38 -10 -10 -24 -33 -31 -50 -8 -18 -18 -33 -24 -33 -6
0 -7 -3 -4 -6 4 -4 -2 -19 -13 -34 -11 -16 -20 -31 -20 -34 0 -3 -11 -22 -25
-42 -14 -20 -23 -39 -21 -41 2 -3 -5 -14 -16 -25 -12 -12 -18 -28 -15 -39 3
-10 1 -17 -4 -13 -13 7 -11 -33 2 -57 6 -11 17 -18 24 -15 8 3 12 0 9 -7 -3
-9 8 -12 38 -12 24 0 49 -4 57 -10 9 -6 15 -7 18 0 3 11 124 12 142 1 6 -4 11
-4 11 1 0 9 57 9 66 0 4 -4 12 -3 18 0 15 10 76 10 76 0 0 -4 6 -4 14 0 8 4
49 6 91 3 42 -3 78 -3 80 -1 7 6 183 7 179 0 -2 -4 14 -2 36 3 36 10 60 32 66
63 1 6 3 15 5 20 3 10 -18 55 -30 65 -4 3 -15 24 -25 47 -10 23 -23 40 -29 36
-6 -3 -7 -1 -3 5 3 6 -1 17 -9 26 -9 8 -16 19 -17 23 -4 27 -11 43 -19 43 -5
0 -9 5 -9 10 0 6 -17 38 -37 73 -21 34 -47 79 -58 100 -11 20 -23 37 -26 37
-4 0 -10 14 -14 30 -4 17 -11 30 -16 30 -5 0 -9 5 -9 11 0 6 -12 30 -27 53
-16 22 -34 53 -42 69 -11 20 -17 24 -23 15 -6 -9 -8 -6 -4 7 7 24 0 35 -34 58
-27 19 -60 22 -60 6z m-130 -589 c0 -5 -5 -10 -11 -10 -5 0 -7 5 -4 10 3 6 8
10 11 10 2 0 4 -4 4 -10z m120 0 c0 -5 -5 -10 -11 -10 -5 0 -7 5 -4 10 3 6 8
10 11 10 2 0 4 -4 4 -10z"/>
<path d="M15910 7298 c-30 -17 -58 -35 -61 -40 -3 -5 -8 -9 -10 -8 -9 4 -78
-34 -74 -41 3 -3 -3 -6 -13 -5 -9 0 -16 -4 -15 -11 2 -7 -4 -10 -12 -7 -8 4
-15 1 -15 -6 0 -6 -4 -9 -9 -6 -5 3 -19 -3 -32 -13 -13 -10 -44 -29 -69 -41
-25 -13 -60 -34 -77 -48 -18 -13 -33 -21 -33 -17 0 5 -8 1 -17 -7 -10 -9 -37
-25 -60 -37 -24 -12 -43 -26 -43 -31 0 -6 -3 -9 -7 -8 -14 4 -53 -13 -53 -23
0 -5 -7 -9 -15 -9 -27 0 -65 -47 -65 -80 0 -16 5 -30 11 -30 5 0 8 -4 4 -9 -8
-14 53 -54 71 -47 8 3 12 2 9 -4 -6 -9 53 -46 68 -42 4 1 7 -3 7 -8 0 -6 7
-10 16 -10 8 0 12 -4 9 -10 -3 -5 1 -10 10 -10 9 0 23 -7 32 -16 9 -8 22 -13
30 -10 8 3 12 2 9 -3 -5 -7 43 -36 53 -31 2 1 7 -2 10 -7 3 -5 26 -20 51 -34
25 -13 54 -32 64 -41 11 -10 28 -18 38 -18 10 0 18 -4 18 -8 0 -5 16 -14 35
-22 19 -8 35 -17 35 -21 0 -4 8 -9 18 -13 9 -3 26 -11 37 -18 114 -75 168 -77
193 -7 11 32 9 670 -2 688 -6 9 -5 12 1 8 7 -4 9 20 8 68 -1 64 -5 79 -25 100
-31 33 -63 31 -130 -7z m-540 -498 c0 -5 -5 -10 -11 -10 -5 0 -7 5 -4 10 3 6
8 10 11 10 2 0 4 -4 4 -10z m120 -2 c0 -4 -4 -8 -9 -8 -6 0 -12 4 -15 8 -3 5
1 9 9 9 8 0 15 -4 15 -9z m117 -5 c0 -9 -4 -10 -14 -2 -7 6 -13 12 -13 14 0 1
6 2 13 2 8 0 14 -6 14 -14z"/>
<path d="M13152 7243 c-6 -3 -10 -8 -7 -13 3 -5 -3 -16 -12 -26 -10 -10 -16
-18 -14 -18 8 -2 -23 -76 -31 -76 -4 0 -7 -3 -6 -7 2 -11 -12 -43 -37 -83 -24
-39 -23 -36 -31 -67 -4 -13 -9 -23 -13 -23 -3 0 -17 -21 -31 -47 -14 -27 -33
-57 -42 -67 -12 -14 -15 -23 -7 -32 7 -9 5 -12 -8 -10 -10 0 -17 -5 -15 -11 1
-7 -3 -13 -9 -13 -6 0 -9 -6 -6 -14 3 -8 1 -17 -6 -20 -8 -3 -8 -5 -1 -5 7 -1
9 -12 6 -27 -4 -20 -2 -25 8 -19 10 6 11 4 4 -6 -5 -8 -9 -23 -9 -34 0 -11 -4
-26 -8 -32 -5 -7 -5 -13 0 -13 4 0 8 -13 8 -30 0 -16 -4 -30 -8 -30 -5 0 -5
-6 0 -12 4 -7 8 -23 9 -36 2 -37 30 -60 72 -58 39 2 92 24 92 38 0 4 6 8 14 8
7 0 25 9 40 21 14 11 26 17 26 14 0 -4 7 -2 15 5 8 7 28 20 44 29 71 39 130
73 176 101 28 16 76 44 108 61 31 18 57 36 57 42 0 6 3 7 6 4 4 -4 19 2 34 13
16 11 33 20 39 20 6 0 11 5 11 11 0 5 5 7 10 4 6 -3 10 -1 10 5 0 6 5 8 10 5
6 -3 10 -1 10 6 0 7 3 10 6 6 10 -10 36 22 28 34 -4 8 -3 9 4 5 7 -4 14 3 18
18 7 28 -22 86 -43 86 -7 0 -13 3 -13 8 0 4 -17 15 -37 24 -38 17 -94 49 -103
58 -6 6 -84 49 -117 64 -13 6 -23 14 -23 19 0 4 -5 7 -11 7 -5 0 -26 11 -46
25 -20 13 -40 22 -45 19 -4 -3 -8 -1 -8 4 0 13 -80 53 -92 45 -6 -3 -8 -1 -4
5 8 13 -4 21 -22 15z m129 -450 c13 -16 12 -17 -3 -4 -10 7 -18 15 -18 17 0 8
8 3 21 -13z"/>
<path d="M14198 6844 c-4 -3 -38 -7 -77 -9 -51 -1 -74 -7 -87 -20 -18 -18 -29
-95 -13 -95 5 0 9 -6 9 -12 1 -7 16 -38 35 -68 19 -30 40 -67 46 -82 6 -16 14
-28 17 -28 4 0 16 -18 26 -40 11 -22 23 -40 28 -40 5 0 7 -4 3 -9 -3 -5 1 -15
8 -23 7 -7 20 -28 28 -45 7 -18 16 -33 20 -33 3 0 11 -16 19 -35 8 -19 17 -35
20 -35 3 0 12 -16 20 -35 8 -19 17 -35 21 -35 4 0 10 -11 13 -25 4 -14 11 -25
17 -25 6 0 7 -4 4 -10 -3 -5 -2 -10 3 -10 5 0 12 -8 15 -17 7 -22 38 -73 55
-92 14 -15 73 -23 88 -12 23 16 65 84 60 96 -3 8 0 17 6 21 7 4 8 3 4 -4 -4
-7 -3 -12 1 -12 12 0 37 61 35 85 -2 15 0 17 7 6 7 -10 13 -4 27 25 10 22 21
41 24 44 9 7 24 43 22 53 -1 4 2 7 7 7 5 0 14 14 21 30 7 17 16 30 20 30 4 0
10 8 13 18 9 25 63 120 80 140 8 9 13 25 12 35 -2 11 -1 16 2 13 8 -8 43 45
37 56 -3 4 -1 8 5 8 14 0 43 59 48 96 3 28 -23 71 -45 75 -40 8 -190 5 -201
-5 -11 -8 -13 -8 -8 1 5 8 -16 11 -78 10 -47 -1 -85 2 -85 6 0 4 -8 4 -17 -1
-10 -4 -48 -7 -85 -6 -49 1 -66 -1 -61 -10 5 -7 2 -7 -8 1 -9 7 -42 11 -82 10
-37 -1 -68 2 -70 6 -1 5 -5 5 -9 1z"/>
</g>
</svg>
