<svg xmlns="http://www.w3.org/2000/svg" width="354" height="146" fill="none" viewBox="0 0 708 292"><defs><g id="logo"><path fill="#1F52A6" fill-rule="evenodd" d="M507.383 277.074c-1.274.318-2.554.633-3.839.944a652.831 652.831 0 0 0 10.955-2.188c28.966-6.702 55.421-15.098 78.617-24.876 31.41-13.239 56.886-29.027 74.523-46.607 17.64-17.582 27.485-37.009 27.483-57.486-.003-20.476-9.853-39.904-27.498-57.49-17.641-17.583-43.121-33.376-74.534-46.62-40.206-16.952-90.2-29.759-146.083-36.786a634.862 634.862 0 0 0-12.687-1.64c156.278 14.567 273.043 72.491 273.051 141.72.007 56.762-78.473 105.909-192.872 129.785a618.741 618.741 0 0 1-19.466 4.172 532.408 532.408 0 0 0 12.35-2.928Z" clip-rule="evenodd"></path><path fill="#FABD14" d="M323.205.244C159.992 7.22 32.315 70.286 32.36 147.113c.04 69.969 106.002 128.615 248.212 143.913-68.805-5.704-130.339-19.987-178.074-40.114-31.413-13.244-56.893-29.037-74.534-46.62C10.319 186.706.47 167.278.467 146.801c-.003-20.476 9.842-39.902 27.483-57.485 17.637-17.58 43.113-33.369 74.522-46.608C159.875 18.513 237.236 2.773 323.205.244Zm123.802 5.721C502.89 12.992 552.884 25.8 593.09 42.751c31.413 13.244 56.893 29.037 74.534 46.62 17.645 17.586 27.495 37.014 27.497 57.49.003 20.477-9.842 39.904-27.482 57.486-17.637 17.58-43.113 33.368-74.523 46.607-28.297 11.928-61.445 21.8-98.083 29.048 106.708-23.967 180.164-74.325 180.131-132.602-.041-66.637-96.156-123.005-228.157-141.435Z"></path><path fill="#FABD14" d="M584.579 252.455c28.432-12.882 51.655-28.185 68.088-45.183l-602.742-.262c16.454 17.013 39.694 32.337 68.141 45.244l466.513.201Z"></path><path fill="#1F52A6" d="M381.782 54.974c-12.801-9.381-26.776-19.623-46.729-13.121-4.411 1.437-18.313 10.302-38.149 22.95l-.335.214c6.042 5.394 11.287 11.82 16.601 19.243 7.002-3.371 16.518-6.648 28.691-8.1 24.973-2.978 37.958 3.936 52.025 18.338a75.074 75.074 0 0 1 4.695 5.291c4.013-2.406 9.145-4.764 15.467-6.366 7.685-1.946 13.909-1.983 19.681-.475 5.757 1.503 11.005 4.527 16.753 8.596 7.235 5.122 11.969 12.919 13.767 18.478.451 1.395.727 2.675.803 3.757.074 1.052-.031 2.042-.476 2.748-.235.373-.568.67-1.004.829-.428.155-.889.154-1.349.048-.894-.206-1.921-.837-3.07-1.837-4.322-3.759-15.513-11.842-25.858-17.145a51.887 51.887 0 0 0-8.132-3.349l-.209 1.153c-7.273.047-13.436 1.885-18.758 4.83 8.356 14.972 8.756 27.468-1.678 17.971-1.31-1.193-2.905-2.71-4.74-4.455l-.002-.002-.004-.004c-1.486-1.413-3.129-2.976-4.906-4.637a68.701 68.701 0 0 0-2.259 2.449c-3.906 4.443-7.231 9.298-10.247 13.888-.565.861-1.12 1.713-1.667 2.553l-.001.001c-2.356 3.617-4.552 6.989-6.705 9.695-.952 1.197-1.783 2.022-2.513 2.484-.722.456-1.561.674-2.288.177-.626-.428-.892-1.229-1.019-1.978-.135-.798-.15-1.781-.086-2.85.257-4.259 1.828-10.511 3.315-13.871 4.666-10.54 9.451-16.922 14.075-21.018-5.869-5.059-12.461-10.253-19.29-14.538-18.093-11.352-36.95-12.132-50.707-9.391.23.33.46.663.69.997.328.476.649.953.965 1.431 14.424-1.765 28.975 1.078 39.437 5.852-13.048-1.323-24.047.692-33.502 4.684 5.331 11.224 7.558 22.11 7.327 29.48-.078 2.491-.435 4.51-1.001 5.98-.574 1.487-1.29 2.24-1.976 2.526-.643.267-1.592.258-2.984-.565-1.405-.829-3.109-2.407-5.076-4.962-1.461-1.897-3.233-4.296-5.277-7.062l-.001-.001-.001-.001c-2.872-3.886-6.281-8.499-10.115-13.468-8.806 7.389-15.969 16.11-22.343 23.87-4.019 4.893-7.723 9.403-11.328 12.956-12.664 12.484-6.436-13.489-1.391-22.595 8.118-14.65 16.196-23.062 23.841-28.142-5.39-6.35-11.247-12.74-17.384-18.535-.314-.297-.63-.592-.946-.884-52.098 32.859-127.318 78.13-186.912 96.129-13.176 3.979-19.085 5.696-19.042 5.863.276 1.062 241.224-60.526 384.967-1.339 19.913 8.2 17.992-1.445 15.674-13.083-2.055-10.318-4.422-22.201 7.835-24.608 61.544-12.084 157.035 66.491 157.035 66.491S512.481 28.753 470.053 32.606c-21.4 1.944-31.092 12.378-39.371 21.29-4.702 5.062-8.949 9.633-14.625 11.878-12.69 5.019-23.03-2.558-34.275-10.8Z"></path><path fill="#FABD14" d="M370.889 69.998c-14.063-8.58-29.385-17.93-49.195-12.242-3.166.91-10.029 5.529-19.754 12.527 3.903 4.173 7.55 8.836 11.23 13.977 7.002-3.371 16.518-6.648 28.691-8.1 24.973-2.978 37.958 3.936 52.025 18.338a75.095 75.095 0 0 1 4.695 5.291c4.013-2.406 9.145-4.764 15.467-6.366 7.685-1.946 13.909-1.983 19.681-.475 5.757 1.503 11.005 4.527 16.753 8.596 7.235 5.122 11.969 12.919 13.767 18.478.451 1.395.727 2.675.803 3.757.074 1.052-.031 2.042-.476 2.748-.235.373-.568.67-1.004.829-.428.155-.889.154-1.349.048-.894-.206-1.921-.837-3.07-1.837-4.322-3.759-15.513-11.842-25.858-17.145a51.887 51.887 0 0 0-8.132-3.349l-.209 1.153c-7.273.047-13.436 1.885-18.758 4.83 8.356 14.972 8.756 27.468-1.678 17.971-1.31-1.193-2.905-2.71-4.74-4.455l-.002-.002-.004-.004c-1.486-1.413-3.129-2.976-4.906-4.637a68.701 68.701 0 0 0-2.259 2.449c-3.906 4.443-7.231 9.298-10.247 13.888-.565.861-1.12 1.713-1.667 2.553l-.001.001c-2.356 3.617-4.552 6.989-6.705 9.695-.952 1.197-1.783 2.022-2.513 2.484-.722.456-1.561.674-2.288.177-.626-.428-.892-1.229-1.019-1.978-.135-.798-.15-1.781-.086-2.85.257-4.259 1.828-10.511 3.315-13.871 4.666-10.54 9.451-16.922 14.075-21.018-5.869-5.059-12.461-10.253-19.29-14.538-18.093-11.352-36.95-12.132-50.707-9.391.23.33.46.663.69.997.328.476.649.953.965 1.431 14.424-1.765 28.975 1.078 39.437 5.852-13.048-1.323-24.047.692-33.502 4.684 5.331 11.224 7.558 22.11 7.327 29.48-.078 2.491-.435 4.51-1.001 5.98-.574 1.487-1.29 2.24-1.976 2.526-.643.267-1.592.258-2.984-.565-1.405-.829-3.109-2.407-5.076-4.962-1.461-1.897-3.233-4.296-5.277-7.062l-.001-.001-.001-.001c-2.872-3.886-6.281-8.499-10.115-13.468-8.806 7.389-15.969 16.11-22.343 23.87-4.019 4.893-7.723 9.403-11.328 12.956-12.664 12.484-6.436-13.489-1.391-22.595 8.118-14.65 16.196-23.062 23.841-28.142-3.711-4.373-7.643-8.763-11.736-12.966-42.838 31.221-111.488 79.612-175.473 96.643-13.479 3.588-19.52 5.119-19.486 5.263.202.886 229.801-50.62 371.927.958 19.782 7.179 17.874-1.265 15.571-11.454-2.041-9.033-4.392-19.438 7.784-21.546 61.137-10.578 154.995 56.346 154.995 56.346S504.693 40.229 465.367 48.764c-20.263 4.397-31.786 13.37-41.357 20.823-5.794 4.512-10.873 8.467-16.744 10.513-12.615 4.397-24.008-2.555-36.377-10.102Z"></path><path fill="#1F52A6" d="M370.65 149.695c-.245.155-.42.209-.503.219-.068.008-.069.007-.081-.003l-.01-.007c-.048-.033-.265-.339-.37-.961-.105-.623-.128-1.497-.068-2.503.243-4.023 1.801-10.204 3.188-13.339 6.595-14.9 13.295-21.141 19.325-24.492 9.273-5.153 19.826-5.519 28.063-3.599-12.516 1.471-21.648 8.277-28.745 16.349-4.763 5.418-8.658 11.4-12.123 16.721-2.332 3.582-4.47 6.864-6.546 9.475-.906 1.138-1.641 1.831-2.13 2.14Z"></path><path fill="#1F52A6" d="M463.27 125.706c-.162.258-.207.309-.7.196-.493-.114-1.339-.569-2.406-1.498-4.451-3.872-15.682-11.98-26.167-17.354-10.716-5.493-20.879-6.403-29.089-5.234-4.248.605-7.936 1.759-10.96 3.127 4.177-3.387 10.741-7.56 20.479-10.026 14.979-3.794 23.79-.167 35.164 7.886 6.909 4.892 11.493 12.449 13.19 17.695.424 1.311.667 2.477.732 3.391.064.913-.08 1.56-.243 1.817Z"></path><path fill="#1F52A6" fill-rule="evenodd" d="M144.383 82.786c19.262-21.588 35.924-27.674 50.141-28.953 25.868-2.324 53.569 8.807 70.803 21.661-62.282-22.869-96.844 20.215-123.594 35.538-19.06 10.916-5.761-18.82 2.65-28.246Z" clip-rule="evenodd"></path><path fill="#1F52A6" d="M319.354 132.953c1.967 2.555 3.671 4.133 5.075 4.962 1.393.823 2.342.833 2.985.565.686-.285 1.402-1.039 1.975-2.526.567-1.47.924-3.489 1.002-5.98.313-9.992-3.892-26.448-14.227-41.446-7.769-11.276-15.056-20.48-24.48-27.505-9.402-7.008-21.01-11.903-37.492-14.406a128.135 128.135 0 0 0-48.679 1.975 119.859 119.859 0 0 0-6.101 1.617c6.772-.326 14.906.214 23.716 2.093 16.408 3.499 35.276 11.663 52.227 27.673 15.856 14.976 29.848 33.909 38.721 45.916 2.044 2.766 3.817 5.164 5.278 7.062Z"></path><path fill="#1F52A6" fill-rule="evenodd" d="M138.132 218.776h-6.727l-11.616 17.499-11.622-17.5-6.727-.002 15.292 23.031h6.115l15.285-23.028Zm54.064 23.034-.003-18.415 24.463.001.001 18.416h6.116l-.004-23.029-36.69-.001.002 23.026 6.115.002Zm73.709.005V237.2l-30.577-.002-.001-13.799 30.577.003-.001-4.615-30.578-.001-.001-9.231-6.113-.001.002 32.258 36.692.003Zm55.69.005-.001-18.413 30.576.001v-4.613l-36.692-.003.002 23.028h6.115Zm73.71.007-.001-4.615-36.691-.004v4.616l36.692.003Zm-.001-9.23v-4.616l-36.693-.002.001 4.614 36.692.004Zm-.001-9.229v-4.616l-36.692-.004v4.616l36.692.004Zm12.558 18.46-.004-32.305h-6.115l.004 32.304 6.115.001Zm86.263.008v-4.616l-30.577-.003-.003-13.798 30.578.002v-4.613l-30.578-.003-.001-9.23h-6.115l.004 32.257 36.692.004Zm12.557 0-.004-23.028h-6.114l.002 23.028h6.116Zm41.497-23.024-6.727-.001-11.616 17.499-11.621-17.502h-6.728l15.292 23.031 6.114.001 15.286-23.028Zm-368.539 22.996v-4.616l-36.692-.002v4.614l36.692.004Zm-.001-9.229v-4.616l-36.692-.004v4.616l36.692.004Zm0-9.231-.001-4.614-36.692-.004v4.616l36.693.002Zm123.286 13.855-24.463-.001-.001-13.799 24.462.001.002 13.799Zm6.114 4.617-.002-23.029-36.692-.004.002 23.029 36.692.004Zm274.532-4.592-24.463-.003-.003-13.799 24.464.003.002 13.799Zm6.116 4.616-.004-23.03-36.692-.002.002 23.029 36.694.003Z" clip-rule="evenodd"></path><path fill="#1F52A6" d="M444.875 237.216v-4.615l-24.462-.002v4.614l24.462.003Zm6.116 4.616-36.693-.003-.001-13.845 30.58.003-.002-4.616-30.578-.002-.002-4.616 36.692.004v1.18l.002 3.435v4.615l.002 12.72v1.125Z"></path><path fill="#1F52A6" fill-rule="evenodd" d="m247.635 272.941-9.983-.001-.001-7.464 9.984.001v7.464Zm2.496 2.495-.002-12.455h-14.974l.002 17.446h2.496l-.001-4.991h12.479Zm26.891.004-.001-9.96 12.478.001v-2.496h-14.974l.001 12.454 2.496.001Zm48.355-2.492-9.983-.002-.001-7.462h9.982l.002 7.464Zm2.496 2.494-.002-12.453-14.974-.001.002 17.445h2.495v-4.992l12.479.001Zm19.685.003v-2.496l-14.975-.001v2.496l14.975.001Zm0-4.992-.002-2.494-14.973-.002v2.496h14.975Zm-.002-4.99v-2.496l-14.974-.002v2.495l14.974.003Zm7.208 9.984v-9.96l9.982.001.002 9.959h2.494l-.001-12.455h-14.975l.002 12.453 2.496.002Zm29.668-2.494-9.983-.001-.001-7.464 9.984.001v7.464Zm2.496 2.495-.003-17.446h-2.495v4.991h-12.477l.001 12.455h14.974Zm7.205.001-.001-12.453-2.496-.002.003 12.455h2.494Zm17.188-2.495-9.983-.001-.001-7.461h9.984v7.462Zm2.496 2.498-.002-12.455-14.973-.001.001 12.453 14.974.003Zm16.909.001h14.973v-2.495l-12.479-.001-.001-7.464 12.479.003v-2.498h-14.974l.002 12.455Zm22.179.001-.001-17.47-2.495-.002.002 17.471 2.494.001Zm4.71 0 14.973.002-.001-12.454-2.495-.001.002 9.959-9.983-.002-.001-9.957h-2.496l.001 12.453Zm32.164-2.492-9.983-.002-.001-7.463 9.983.001.001 7.464Zm2.496 2.496-.001-12.454-12.479-.002-.001-5.016h-2.495l.001 17.471 14.975.001Z" clip-rule="evenodd"></path><path fill="#1F52A6" d="M267.32 272.941v-2.494h-9.983v2.494h9.983Zm2.496 2.498-14.974-.002-.001-7.488 12.479.002v-2.496l-12.479-.002-.001-2.494h14.974v2.496l.002 2.497v7.487Zm35.875-2.494v-2.496h-9.982v2.495l9.982.001Zm2.496 2.496h-14.973l-.001-7.488h12.478v-2.494l-12.478-.002-.002-2.494 14.975.001v1.805l.001.69v9.982Z"></path></g></defs><use xlink:href="#logo" /></svg>
