<?xml version="1.0" standalone="no"?>
<!DOCTYPE svg PUBLIC "-//W3C//DTD SVG 20010904//EN"
 "http://www.w3.org/TR/2001/REC-SVG-20010904/DTD/svg10.dtd">
<svg version="1.0" xmlns="http://www.w3.org/2000/svg"
 width="1416.000000pt" height="1416.000000pt" viewBox="0 0 1416.000000 1416.000000"
 preserveAspectRatio="xMidYMid meet">
<metadata>
Created by potrace 1.14, written by Peter Selinger 2001-2017
</metadata>
<g transform="translate(0.000000,1416.000000) scale(0.100000,-0.100000)"
fill="#000000" stroke="none">
<path d="M6016 9968 c3 -4 11 -5 19 -1 21 7 19 12 -4 10 -11 0 -18 -5 -15 -9z"/>
<path d="M5773 9962 c-24 -2 -43 -7 -43 -12 0 -5 14 -7 31 -5 17 3 49 5 70 7
21 1 39 5 39 9 0 6 -20 7 -97 1z"/>
<path d="M5898 9963 c12 -2 30 -2 40 0 9 3 -1 5 -23 4 -22 0 -30 -2 -17 -4z"/>
<path d="M5656 9952 c-2 -1 -32 -5 -67 -7 -113 -8 -203 -16 -239 -21 -19 -4
-42 -6 -50 -6 -8 0 -44 -4 -80 -8 -36 -5 -92 -11 -125 -15 -68 -7 -94 -10
-150 -18 -22 -3 -65 -9 -95 -12 -30 -4 -67 -8 -81 -10 -39 -7 -100 -16 -134
-20 -29 -4 -72 -10 -125 -20 -14 -2 -41 -7 -60 -9 -19 -3 -44 -7 -55 -10 -11
-2 -40 -7 -65 -10 -25 -4 -65 -11 -90 -16 -25 -5 -63 -12 -85 -16 -50 -8 -76
-12 -95 -17 -8 -2 -33 -7 -55 -11 -225 -43 -718 -162 -925 -222 -320 -93 -770
-246 -931 -316 -19 -9 -63 -28 -99 -43 -269 -113 -588 -272 -765 -382 -11 -7
-42 -26 -70 -43 -27 -17 -59 -36 -70 -43 -32 -20 -278 -193 -303 -213 -12 -11
-36 -30 -53 -44 -140 -112 -331 -304 -442 -445 -109 -138 -239 -378 -271 -500
-1 -5 -10 -35 -19 -65 -48 -160 -58 -441 -22 -595 9 -38 18 -81 21 -94 3 -13
14 -49 25 -80 12 -31 23 -65 27 -76 19 -63 172 -334 194 -343 5 -2 8 -8 8 -13
0 -5 6 -17 14 -26 95 -117 130 -159 190 -222 39 -41 79 -81 90 -90 10 -9 32
-29 50 -46 47 -44 144 -127 169 -144 12 -8 24 -17 27 -20 15 -17 90 -71 99
-71 5 0 11 -4 13 -8 5 -13 348 -242 362 -242 2 0 47 -25 101 -55 145 -82 411
-213 555 -272 19 -8 62 -27 95 -43 33 -15 71 -30 85 -34 14 -4 34 -11 45 -16
43 -19 103 -43 170 -66 39 -14 79 -29 90 -34 59 -28 690 -223 790 -245 11 -2
56 -14 100 -25 44 -12 87 -23 95 -25 8 -1 34 -8 57 -14 22 -6 61 -15 84 -20
24 -5 76 -17 114 -25 164 -38 414 -88 499 -102 21 -3 48 -8 60 -10 41 -8 201
-36 236 -40 19 -3 46 -7 60 -10 22 -4 110 -17 190 -28 14 -2 50 -7 80 -10 30
-4 62 -9 70 -11 8 -2 44 -7 80 -10 36 -4 73 -9 82 -10 9 -2 43 -6 75 -10 131
-13 157 -17 165 -21 4 -3 8 0 8 5 0 6 -8 11 -17 11 -19 1 -140 16 -183 24 -14
3 -47 7 -75 11 -27 3 -57 8 -65 10 -8 3 -29 7 -45 9 -45 6 -216 35 -245 41
-14 4 -38 8 -55 11 -16 3 -64 12 -105 20 -41 9 -86 18 -100 20 -14 3 -54 12
-90 20 -81 19 -98 23 -135 30 -16 3 -82 18 -145 35 -63 16 -126 32 -138 35
-38 8 -117 30 -267 74 -77 23 -147 43 -155 45 -8 2 -15 4 -15 5 0 1 -7 3 -15
5 -23 5 -182 59 -325 110 -71 26 -142 50 -156 55 -14 4 -34 12 -45 18 -10 6
-59 26 -109 46 -99 39 -243 100 -249 107 -3 3 6269 2 8489 -1 l520 -1 -55 -25
c-30 -14 -100 -44 -155 -66 -55 -22 -119 -49 -142 -59 -23 -11 -47 -19 -53
-19 -5 0 -18 -4 -28 -9 -24 -14 -182 -71 -212 -77 -13 -3 -27 -8 -30 -12 -3
-4 -13 -8 -23 -10 -10 -2 -46 -12 -80 -23 -102 -33 -251 -80 -267 -84 -58 -14
-274 -76 -279 -80 -7 -7 51 1 109 16 25 6 52 12 60 14 8 2 15 4 15 5 0 1 9 3
20 4 11 2 34 6 50 10 17 3 43 9 59 12 16 3 37 9 48 15 10 5 18 8 18 5 0 -3 15
0 33 5 17 5 48 12 67 15 19 3 40 9 45 12 6 4 19 8 31 9 11 2 95 24 185 49 90
24 171 47 179 49 8 2 15 4 15 5 0 1 8 3 17 5 10 2 70 20 135 41 65 21 120 39
123 40 3 0 12 3 20 6 8 3 71 25 140 48 69 22 134 45 145 49 11 5 92 37 180 71
169 65 186 72 277 114 31 14 60 26 63 26 10 0 469 230 475 238 3 4 30 20 60
36 55 28 327 200 365 231 11 8 49 37 85 63 35 26 72 54 81 62 9 8 36 31 59 50
183 148 381 366 484 530 23 36 47 74 54 85 7 11 30 56 51 100 126 258 166 537
116 805 -64 345 -295 706 -645 1007 -24 21 -51 45 -60 53 -70 67 -328 248
-491 345 -63 38 -123 73 -134 80 -11 7 -24 12 -29 13 -5 0 -12 4 -15 10 -16
24 -685 340 -756 357 -5 1 -23 8 -40 15 -54 22 -158 61 -275 101 -63 22 -124
44 -135 49 -11 4 -74 25 -140 45 -66 20 -138 43 -160 50 -22 7 -92 27 -155 44
-63 17 -131 36 -150 42 -19 6 -42 11 -50 13 -8 1 -33 8 -55 14 -22 6 -51 13
-65 16 -26 6 -170 41 -230 56 -30 8 -168 38 -250 55 -14 2 -45 9 -70 15 -25 5
-54 11 -65 13 -53 11 -101 20 -115 22 -8 1 -58 10 -110 20 -52 9 -106 18 -120
20 -14 2 -25 4 -25 5 0 3 -77 16 -155 26 -19 2 -51 7 -70 10 -37 6 -73 11
-130 19 -37 5 -118 17 -135 20 -5 1 -37 5 -70 9 -33 4 -76 9 -95 12 -76 10
-100 12 -100 5 0 -4 17 -9 38 -10 35 -1 77 -8 77 -11 0 -1 11 -3 25 -4 14 -2
48 -7 75 -11 28 -4 57 -9 65 -10 8 -1 26 -5 40 -8 24 -6 68 -14 120 -22 14 -2
62 -11 108 -20 45 -9 88 -13 94 -9 7 4 8 3 4 -4 -5 -8 2 -13 21 -14 42 -2 56
-5 73 -11 8 -3 60 -15 115 -27 55 -12 161 -38 235 -57 74 -19 142 -36 150 -38
63 -14 185 -48 235 -64 33 -11 69 -21 80 -21 12 0 25 -4 30 -9 8 -7 89 -33
145 -47 16 -3 222 -76 323 -113 31 -11 83 -30 115 -42 31 -11 61 -25 67 -30 5
-5 15 -9 23 -9 7 0 32 -9 56 -19 23 -11 67 -29 96 -41 104 -41 460 -214 600
-292 149 -82 428 -262 505 -325 6 -4 28 -21 50 -37 40 -29 52 -39 90 -73 12
-10 43 -36 70 -58 152 -123 366 -364 483 -545 80 -123 176 -323 198 -410 2 -8
10 -40 18 -70 8 -30 17 -66 20 -80 3 -14 7 -36 10 -49 18 -80 23 -242 12 -361
-12 -127 -70 -361 -99 -397 -5 -7 -7 -13 -3 -13 7 0 -130 -271 -142 -279 -4
-4 -13 -17 -21 -31 -27 -49 -156 -214 -217 -279 l-63 -67 -145 1 c-80 0 -147
3 -149 5 -2 3 -28 41 -57 85 -30 44 -57 82 -62 83 -4 2 -8 10 -8 17 0 7 -3 15
-7 17 -5 2 -17 17 -29 33 -80 116 -110 158 -154 220 -27 39 -56 79 -64 90 -8
11 -53 73 -100 137 -47 65 -86 122 -86 127 0 5 -4 11 -9 13 -12 4 -111 136
-111 148 0 4 -4 10 -8 12 -5 2 -42 48 -83 103 -40 55 -76 102 -79 105 -3 3
-25 32 -50 65 -52 71 -319 415 -335 431 -5 6 -23 28 -40 50 -47 60 -178 221
-212 261 -10 12 -25 30 -33 40 -48 59 -170 204 -202 238 -20 22 -46 51 -58 65
-37 44 -114 131 -140 159 -203 221 -336 356 -491 502 -80 75 -93 86 -300 254
-45 35 -175 118 -237 150 -124 64 -195 84 -292 79 -80 -4 -145 -10 -145 -14 0
-1 -10 -3 -21 -5 -61 -12 -197 -62 -263 -97 -113 -59 -179 -114 -356 -293 -88
-89 -178 -176 -200 -192 -128 -95 -287 -114 -445 -54 -54 21 -172 84 -192 104
-7 7 -31 24 -53 37 -22 13 -42 27 -45 30 -3 3 -21 17 -40 30 -19 14 -39 28
-45 33 -32 25 -139 98 -194 131 -128 78 -253 127 -359 142 -68 10 -192 10
-192 1 0 -5 -4 -6 -8 -3 -5 3 -35 -2 -68 -10 -32 -8 -69 -17 -81 -19 -13 -3
-45 -19 -73 -35 -28 -17 -53 -30 -56 -30 -5 0 -379 -231 -514 -319 -52 -33
-103 -65 -112 -71 -13 -8 -28 0 -70 33 -65 53 -140 104 -152 105 -5 0 -12 4
-15 9 -10 14 -119 69 -202 101 -111 44 -304 93 -429 108 -19 3 -46 7 -60 10
-119 23 -547 23 -660 -1 -14 -3 -42 -7 -63 -10 -44 -6 -55 -8 -152 -30 -38 -9
-80 -18 -92 -21 -47 -10 -20 -19 55 -19 70 0 227 -15 295 -29 15 -3 39 -8 55
-11 263 -51 571 -188 812 -361 90 -64 109 -80 184 -146 l31 -27 -25 -18 c-52
-38 -352 -223 -361 -223 -5 0 -9 -4 -9 -10 0 -5 -4 -10 -9 -10 -5 0 -52 -27
-104 -60 -53 -33 -100 -60 -106 -60 -5 0 -11 -3 -13 -8 -2 -6 -260 -164 -323
-198 -11 -6 -50 -29 -88 -52 -37 -23 -69 -42 -72 -42 -3 0 -29 -16 -59 -35
-30 -19 -57 -35 -60 -35 -4 0 -53 -28 -176 -100 -20 -12 -155 -88 -205 -115
-22 -12 -86 -48 -143 -79 -56 -31 -104 -56 -107 -56 -2 0 -28 -14 -57 -31 -72
-43 -729 -371 -748 -374 -3 -1 -27 -12 -55 -24 -107 -50 -173 -80 -255 -114
-47 -19 -125 -52 -173 -72 -164 -68 -559 -208 -620 -219 -13 -2 -39 -11 -60
-19 -20 -9 -37 -14 -37 -12 0 2 -26 -5 -57 -16 -66 -23 -65 -23 -115 -34 -21
-4 -38 -11 -38 -17 0 -5 4 -7 8 -4 5 3 24 8 43 11 19 3 52 10 74 16 22 5 54
12 70 14 40 7 70 13 70 15 0 1 11 3 25 6 14 2 36 7 50 11 14 3 30 7 35 7 6 1
24 5 40 9 29 6 76 15 120 22 28 5 125 24 155 31 14 3 35 7 47 9 12 2 34 6 50
9 15 3 44 8 63 11 19 4 53 10 75 15 33 7 194 35 315 55 14 2 92 15 174 29 83
14 152 23 154 21 4 -4 -104 -55 -117 -55 -3 0 -22 -8 -41 -19 -19 -10 -38 -19
-43 -20 -4 0 -23 -8 -43 -16 -20 -8 -42 -15 -48 -15 -7 0 -16 -4 -22 -9 -9 -9
-213 -82 -340 -123 -81 -26 -72 -23 -109 -32 -16 -4 -50 -14 -75 -22 -25 -7
-56 -15 -70 -18 -14 -3 -41 -10 -60 -16 -35 -11 -52 -16 -100 -25 -50 -11
-119 -31 -125 -37 -6 -6 26 -3 65 7 14 3 40 8 59 10 19 2 57 9 85 14 28 6 67
13 86 16 19 3 42 8 50 10 8 2 33 6 55 10 22 3 56 8 75 12 45 9 50 10 53 13 1
1 18 3 37 5 48 4 106 13 166 25 28 6 66 12 85 14 19 2 48 6 64 9 48 8 118 20
140 23 11 1 34 5 50 7 17 3 55 9 85 12 30 4 57 8 60 10 3 1 32 6 65 9 33 4 74
9 90 12 17 3 44 7 60 8 54 6 150 18 170 22 11 2 45 7 75 10 30 3 66 7 80 9 42
6 133 17 165 20 50 5 137 14 185 20 50 6 89 10 200 20 41 3 91 8 110 10 19 2
69 7 110 10 41 4 95 8 120 11 25 2 83 6 130 9 47 4 101 8 120 10 19 2 91 6
160 10 69 4 152 9 185 11 245 14 451 18 940 18 512 -1 693 -5 875 -19 36 -3
103 -8 150 -11 116 -8 156 -11 220 -18 30 -3 82 -8 115 -11 64 -7 113 -12 185
-21 91 -11 126 -15 185 -24 33 -5 76 -12 95 -14 19 -3 49 -7 65 -10 183 -30
230 -38 235 -41 3 -2 23 -6 45 -9 22 -3 51 -8 65 -11 14 -3 34 -7 45 -9 11 -2
50 -11 88 -20 37 -9 79 -18 95 -21 15 -2 81 -19 147 -36 66 -17 127 -32 135
-34 51 -12 470 -146 540 -173 23 -8 21 -8 82 -16 31 -5 74 -5 96 -1 61 10 80
66 60 180 -5 33 -11 69 -12 80 -2 11 -8 38 -14 60 -63 231 -3 361 178 390 148
23 456 23 555 -1 11 -2 34 -6 50 -8 238 -30 696 -165 980 -290 17 -8 80 -35
140 -62 110 -48 506 -243 515 -253 3 -3 32 -19 65 -36 33 -16 67 -35 75 -41 8
-6 42 -26 75 -44 33 -18 69 -38 80 -44 48 -26 250 -150 255 -156 3 -3 38 -25
78 -49 39 -24 72 -46 72 -50 0 -4 -2561 -6 -5691 -4 l-5691 3 -30 32 c-16 18
-42 47 -57 63 -72 79 -205 264 -254 355 -11 19 -29 53 -41 75 -44 79 -115 273
-131 354 -2 13 -6 30 -9 39 -3 9 -8 37 -11 62 -3 25 -8 61 -10 80 -6 47 -7
249 0 280 2 14 7 44 9 65 17 157 120 434 215 580 14 22 32 52 40 68 8 15 18
27 23 27 4 0 8 6 8 13 0 7 8 22 18 33 9 10 30 37 47 59 123 165 339 373 565
543 52 40 100 75 105 80 6 4 37 25 70 47 33 21 62 41 65 44 10 12 128 81 138
81 6 0 12 4 14 8 9 22 344 198 623 327 84 39 284 120 405 165 63 23 124 46
135 51 23 10 382 128 405 133 8 2 22 6 30 9 16 6 124 37 150 42 8 2 71 19 140
38 107 30 328 84 410 101 14 3 68 14 120 26 52 11 109 23 125 26 17 3 41 7 55
10 14 2 59 11 100 19 41 8 91 17 110 20 20 3 47 8 60 10 14 3 41 8 60 11 19 3
60 9 90 14 51 8 109 17 170 25 14 2 41 6 60 10 19 3 53 8 75 10 22 3 63 7 90
11 28 3 64 8 80 9 17 2 55 7 85 10 94 11 114 13 143 14 38 1 34 17 -4 16 -17
0 -32 -1 -33 -3z m1584 -1475 c92 -18 140 -32 215 -62 39 -15 82 -36 97 -46
14 -11 29 -19 33 -19 6 0 64 -40 130 -90 11 -8 73 -68 139 -133 l119 -118 90
41 c102 48 156 66 257 88 123 27 218 29 324 7 43 -9 86 -20 95 -25 9 -4 48
-23 86 -41 110 -52 192 -109 276 -191 148 -145 251 -407 169 -433 -24 -8 -50
6 -120 62 -30 24 -62 50 -70 56 -42 33 -230 157 -238 157 -6 0 -12 3 -14 8 -1
4 -23 18 -48 31 -25 14 -47 27 -50 30 -6 7 -150 75 -194 91 -22 8 -31 8 -37
-2 -5 -7 -21 -13 -36 -14 -70 -3 -147 -17 -200 -35 -82 -28 -133 -52 -133 -61
0 -5 14 -39 31 -76 64 -141 80 -191 84 -267 7 -112 -58 -105 -190 19 -38 37
-90 85 -114 107 l-44 41 -48 -52 c-26 -28 -75 -91 -108 -138 -34 -48 -64 -91
-68 -97 -5 -5 -47 -68 -95 -140 -47 -71 -99 -144 -115 -161 -66 -74 -108 -43
-98 73 3 37 8 76 11 85 2 9 7 26 9 37 3 12 7 29 9 40 8 35 67 174 97 230 52
94 117 187 168 239 27 27 46 54 42 58 -3 5 -31 29 -61 54 -72 59 -75 61 -145
114 -33 25 -65 50 -72 56 -7 5 -16 10 -21 10 -5 0 -17 9 -27 20 -10 11 -21 20
-26 20 -4 0 -37 18 -73 40 -72 44 -194 97 -301 130 -91 28 -91 28 -240 48 -98
13 -339 5 -405 -13 -8 -3 -19 -1 -25 3 -10 7 -35 47 -35 56 0 15 278 112 349
122 18 2 36 6 40 9 4 2 21 6 37 9 104 18 158 25 163 21 4 -2 13 0 20 5 14 8
316 6 361 -3z m-525 -280 c17 -2 50 -8 75 -12 83 -12 300 -74 319 -91 2 -2
-57 -3 -130 -4 -130 0 -146 -1 -216 -14 -18 -3 -45 -8 -60 -11 -16 -2 -43 -9
-61 -14 -18 -5 -36 -11 -40 -12 -4 -1 -11 -3 -17 -5 -5 -2 -36 -12 -67 -22
l-57 -19 -32 61 c-18 34 -43 78 -56 99 -13 21 -21 42 -18 46 5 9 304 7 360 -2z
m-721 -336 c37 -48 70 -91 73 -98 3 -6 -47 -63 -110 -125 -114 -112 -177 -183
-312 -348 -38 -47 -72 -87 -75 -90 -3 -3 -30 -34 -60 -69 -175 -205 -251 -233
-251 -93 0 26 2 57 5 68 2 12 7 37 10 55 5 34 40 157 55 194 38 95 147 285
205 356 11 15 32 42 46 60 43 57 173 185 225 222 l49 35 36 -41 c19 -22 66
-79 104 -126z"/>
<path d="M8477 8134 c-1 -1 -28 -5 -59 -8 -109 -13 -289 -69 -373 -116 -82
-47 -112 -67 -135 -89 -14 -14 -18 -20 -10 -14 15 10 76 32 108 38 9 2 17 4
17 5 0 1 11 3 25 5 14 2 36 6 50 9 32 8 217 9 250 1 14 -3 41 -8 60 -11 57 -9
180 -52 258 -91 90 -44 256 -142 260 -154 2 -5 8 -9 13 -9 9 0 109 -66 119
-78 3 -4 13 -11 22 -17 9 -5 51 -36 92 -68 42 -32 80 -56 86 -52 45 28 -53
248 -162 365 -124 133 -346 255 -502 275 -52 7 -116 12 -119 9z"/>
<path d="M8186 7923 c-2 -2 -31 -5 -65 -8 -34 -3 -70 -9 -80 -15 -10 -5 -21
-7 -23 -4 -7 6 -134 -43 -168 -66 -14 -8 -37 -22 -51 -29 -26 -13 -125 -105
-164 -152 -26 -31 -95 -137 -95 -145 0 -3 -8 -18 -18 -32 -31 -44 -92 -196
-108 -269 -20 -87 -28 -189 -16 -197 18 -11 72 57 190 234 64 96 120 180 124
185 135 177 213 257 324 333 61 42 175 99 210 106 11 3 31 9 46 15 15 6 43 11
63 13 52 3 28 17 -40 23 -98 9 -126 11 -129 8z"/>
<path d="M8930 9885 c0 -7 30 -13 34 -7 3 4 -4 9 -15 9 -10 1 -19 0 -19 -2z"/>
<path d="M8980 9879 c0 -5 9 -9 20 -9 11 0 20 2 20 4 0 2 -9 6 -20 9 -11 3
-20 1 -20 -4z"/>
<path d="M3899 8926 c-2 -2 -29 -7 -59 -10 -98 -10 -287 -63 -317 -88 -7 -6
-13 -8 -13 -4 0 23 -272 -149 -375 -236 -209 -178 -362 -374 -435 -558 -12
-30 -26 -64 -31 -75 -32 -75 -35 -181 -6 -210 30 -29 96 -10 226 66 14 8 30
18 35 22 14 10 284 204 395 284 47 34 91 66 96 70 12 10 186 121 235 150 70
42 248 131 286 143 21 7 44 16 49 20 33 25 300 94 405 106 36 3 79 8 95 10 89
11 280 3 395 -16 30 -5 71 -12 90 -15 55 -9 188 -44 253 -67 32 -11 61 -17 64
-14 4 3 1 6 -5 6 -6 0 -17 6 -24 13 -13 12 -94 65 -153 99 -95 56 -330 165
-338 157 -2 -2 -10 1 -18 7 -12 10 -135 54 -164 60 -5 1 -30 7 -55 15 -63 18
-109 28 -160 34 -14 2 -25 4 -25 5 0 1 -13 4 -30 6 -16 2 -46 7 -65 10 -43 7
-345 16 -351 10z"/>
<path d="M7694 4828 c-5 -7 -7 -30 -5 -51 3 -38 2 -39 -31 -37 -18 1 -75 2
-127 1 -75 -1 -92 -4 -88 -15 3 -8 3 -17 0 -20 -5 -5 -7 -120 -4 -198 1 -14
19 -16 151 -17 l150 -2 0 176 c0 167 -1 175 -19 175 -11 0 -23 -5 -27 -12z
m-6 -210 l-3 -73 -97 -3 -98 -3 0 76 0 75 100 0 100 0 -2 -72z"/>
<path d="M9009 4823 c0 -21 0 -252 1 -300 0 -28 4 -33 24 -33 l24 0 0 175 1
175 -25 0 c-16 0 -24 -6 -25 -17z"/>
<path d="M9545 4665 l0 -175 150 0 151 0 -1 123 0 122 -125 5 -126 5 1 48 c1
44 -1 47 -24 47 l-26 0 0 -175z m250 -47 l0 -73 -100 0 -100 0 0 55 c-1 94 -6
90 104 90 l96 0 0 -72z"/>
<path d="M4804 4740 l-100 -5 0 -170 c1 -168 1 -170 24 -173 23 -4 26 4 23 66
l-2 32 128 0 128 0 -2 117 c0 65 -2 121 -2 125 -2 10 -87 13 -197 8z m147 -60
c1 -5 1 -26 1 -45 0 -19 0 -48 -1 -64 l-1 -29 -98 0 -98 -1 -1 75 -1 74 99 0
c59 0 99 -4 100 -10z"/>
<path d="M5109 4738 c-21 -8 -22 -10 -13 -32 5 -13 26 -16 130 -16 l124 0 -2
-24 c-2 -24 -3 -24 -119 -24 -65 0 -122 -2 -127 -5 -4 -3 -8 -37 -7 -74 l2
-68 149 0 149 0 1 122 1 122 -134 3 c-74 2 -143 0 -154 -4z m237 -171 c-3 -21
-9 -22 -96 -25 -94 -3 -115 4 -103 34 6 16 38 20 130 16 68 -3 72 -5 69 -25z"/>
<path d="M5598 4742 l-108 -3 0 -124 0 -125 25 0 25 0 0 100 0 100 125 0 125
0 0 24 c0 21 -5 24 -42 27 -24 2 -91 3 -150 1z"/>
<path d="M7849 4740 c-13 -8 -16 -30 -16 -130 l-1 -120 27 0 26 0 -1 120 c0
123 -7 146 -35 130z"/>
<path d="M8045 4742 c-33 -2 -62 -7 -65 -12 -3 -4 -5 -59 -4 -122 l0 -113 150
-3 150 -2 -1 122 0 123 -85 5 c-47 3 -112 4 -145 2z m181 -124 l-1 -73 -97 -3
c-89 -3 -98 -2 -99 15 0 10 -2 38 -3 63 -4 71 -5 70 103 70 l97 0 0 -72z"/>
<path d="M8680 4740 l-64 -5 -2 -112 c0 -62 2 -117 6 -123 4 -7 56 -10 151 -8
151 3 147 2 140 46 0 4 -56 7 -123 7 l-122 0 -1 73 -1 72 121 0 c67 0 124 3
127 6 3 3 4 14 1 24 -4 16 -17 19 -86 22 -45 2 -111 1 -147 -2z"/>
<path d="M5868 4733 c-3 -5 -4 -15 -4 -23 1 -12 23 -16 121 -18 118 -3 139 -9
128 -39 -6 -14 -55 -17 -206 -10 -20 1 -38 0 -38 -3 -5 -20 -4 -132 1 -140 4
-7 61 -10 151 -8 l144 3 0 120 0 120 -147 3 c-81 1 -148 -1 -150 -5z m245
-168 c-5 -24 -6 -24 -101 -22 -90 2 -95 3 -98 25 -4 22 -2 22 100 22 l103 0
-4 -25z"/>
<path d="M6259 4723 c-1 -19 0 -300 0 -320 1 -7 13 -13 27 -13 18 0 25 5 23
18 -1 9 -1 32 0 50 l1 32 123 0 124 0 0 125 -1 125 -148 0 c-134 0 -148 -2
-149 -17z m249 -108 l-2 -74 -97 0 c-111 0 -107 -4 -101 97 l4 52 99 0 100 0
-3 -75z"/>
<path d="M6650 4715 l0 -25 150 0 150 0 0 25 0 25 -150 0 -150 0 0 -25z"/>
<path d="M7048 4733 c-3 -5 -4 -60 -3 -123 l0 -115 25 0 c25 0 25 0 25 98 l-1
97 101 0 100 0 0 -97 c0 -88 2 -98 19 -101 10 -2 22 1 25 7 4 5 7 61 6 123 l0
113 -147 3 c-80 1 -148 -1 -150 -5z"/>
<path d="M9157 4733 c-2 -4 -4 -61 -5 -125 l-1 -118 152 0 152 0 -2 62 c-1 35
-2 91 -2 126 -1 58 -2 62 -25 62 -22 0 -24 -3 -24 -67 0 -38 -1 -83 -1 -100
l-1 -33 -98 0 -99 0 1 98 c0 91 -1 97 -21 100 -12 2 -23 0 -26 -5z"/>
<path d="M6668 4643 c-11 -3 -18 -14 -18 -28 l0 -24 150 0 150 -1 0 25 c0 17
-6 25 -17 26 -70 3 -206 0 -210 -5 -3 -3 -13 -2 -22 3 -9 4 -24 6 -33 4z"/>
<path d="M6703 4542 c-49 -3 -53 -5 -53 -28 l0 -24 150 0 150 0 0 25 c0 21 -5
25 -32 26 -18 0 -62 1 -98 2 -36 1 -89 1 -117 -1z"/>
<path d="M10175 4465 l-50 -14 45 6 c25 3 54 9 65 14 31 12 -4 9 -60 -6z"/>
<path d="M5348 4203 c7 -3 16 -2 19 1 4 3 -2 6 -13 5 -11 0 -14 -3 -6 -6z"/>
</g>
</svg>
